<svg xmlns="http://www.w3.org/2000/svg" width="16" height="16" fill="black" class="im-logo" viewBox="0 0 16 16">
  <path d="M1080 1557 c29 -15 45 -54 36 -90 -15 -61 -114 -110 -143 -72 -12 18
-13 17 -13 -6 0 -41 42 -102 84 -123 36 -17 43 -18 79 -5 56 20 80 56 85 128
4 52 1 67 -23 107 -26 45 -71 74 -112 74 -14 0 -12 -3 7 -13z"/>
<path d="M580 1487 c0 -42 -68 -92 -99 -72 -23 14 -11 -56 14 -80 33 -33 70
-32 106 4 24 25 29 38 29 78 0 47 -20 93 -41 93 -5 0 -9 -10 -9 -23z"/>
<path d="M617 1279 c-181 -24 -322 -112 -381 -238 -17 -37 -21 -65 -21 -142 0
-92 1 -98 42 -180 38 -77 153 -222 166 -209 5 6 27 340 27 417 l0 51 -29 -14
c-31 -15 -91 -21 -148 -14 -40 5 -43 29 -12 96 44 92 171 184 277 200 38 6 42
5 42 -15 0 -11 -5 -21 -11 -21 -5 0 1 -10 15 -22 17 -15 41 -63 66 -133 23
-60 57 -148 77 -195 31 -72 37 -99 41 -174 3 -81 2 -88 -12 -77 -25 21 -99
175 -137 286 l-34 100 -7 -85 c-3 -47 -9 -180 -13 -295 l-8 -211 79 -36 c131
-61 221 -86 377 -103 l58 -7 -6 94 c-13 210 -36 526 -41 568 l-6 45 -42 -105
c-61 -150 -100 -223 -136 -254 -17 -14 -36 -26 -41 -26 -5 0 -9 40 -9 89 0 71
4 97 19 123 11 18 41 87 67 153 53 136 78 180 124 218 57 48 142 32 195 -37
35 -46 56 -141 111 -496 26 -168 49 -307 50 -309 7 -8 93 50 132 89 150 150
127 378 -58 574 -153 162 -374 268 -615 296 -100 11 -103 11 -198 -1z"/>
</svg>


